<?xml version="1.0" encoding="UTF-8"?>
<svg width="77.361mm" height="14.177mm" version="1.1" viewBox="0 0 77.361 14.177" xmlns="http://www.w3.org/2000/svg" xmlns:xlink="http://www.w3.org/1999/xlink">
 <g transform="translate(-55.083 -139.12)">
  <path d="m66.051 153.28c-1.7434-0.11037-3.3388-0.63272-4.4021-1.4413-0.11917-0.0906-0.37686-0.31921-0.57264-0.50795-0.54818-0.52849-0.90577-0.78498-1.4955-1.0727-0.5788-0.28237-1.2589-0.47696-1.9691-0.5634-0.3727-0.0454-1.263-0.0389-1.6748 0.0121-0.66374 0.0822-0.6328 0.0804-0.58879 0.0339 0.02159-0.0228 0.17717-0.0764 0.34572-0.11895 2.0164-0.50922 4.0665-0.0967 5.5291 1.1126 0.12954 0.1071 0.31206 0.25998 0.40561 0.33973 1.1823 1.0079 3.2867 1.4815 5.3232 1.198 0.94842-0.13202 1.7776-0.38236 2.5927-0.78278 1.2892-0.6333 2.107-1.4854 2.3289-2.4265 0.04993-0.21178 0.04937-0.61479-0.0011-0.831-0.12507-0.53521-0.54158-1.0224-1.124-1.3148-0.8663-0.43485-1.8909-0.4543-3.7573-0.0713-0.82588 0.16948-1.0626 0.2071-1.4764 0.23464-0.83516 0.0556-1.8535-0.10798-3.1774-0.51033-0.73472-0.22331-0.82338-0.2824-0.23764-0.15839 0.8003 0.16944 1.4586 0.24947 2.0542 0.24972 0.8985 3.9e-4 1.1888-0.0735 2.5579-0.65098 1.4363-0.60583 2.6725-0.78426 3.8203-0.55146 1.2894 0.26153 2.2708 1.0655 2.6721 2.189 0.22106 0.61899 0.21089 1.449-0.02584 2.1078-0.50702 1.411-1.942 2.6064-3.8038 3.1688-1.0035 0.30311-2.174 0.42836-3.3234 0.3556z" fill="#a3ca2b" stroke-width=".026168"/>
  <path d="m61.748 153.27c-0.76749-0.0823-1.3524-0.28233-2.4903-0.85137-0.81739-0.40877-1.2065-0.55095-1.8512-0.67645-0.53786-0.10471-0.86238-0.12809-1.517-0.10932-0.32562 9e-3 -0.64364 0.0241-0.7067 0.0328-0.08144 0.0112-0.1094 7e-3 -0.0965-0.0136 0.02895-0.0468 0.65485-0.41063 0.97108-0.56439 0.63696-0.30974 1.1481-0.43892 1.7392-0.43959 0.75495-7.4e-4 1.3108 0.17863 2.3647 0.76356 0.78741 0.43702 1.2208 0.62029 1.7175 0.72643 0.27722 0.0592 1.2015 0.0674 1.4524 0.013 1.5782-0.343 2.7249-1.486 3.0794-3.0695 0.05345-0.23873 0.06077-0.33979 0.06037-0.83426-4.87e-4 -0.60349-0.02234-0.78079-0.1709-1.3864-0.08725-0.35569-0.30903-1.0542-0.34114-1.0745-0.01233-8e-3 -0.19646 0.0294-0.40918 0.0826-0.21272 0.0532-0.51629 0.11699-0.67461 0.14174-0.37703 0.059-1.1936 0.0803-1.5249 0.0398-0.39085-0.0477-0.81303-0.15342-0.76411-0.19129 0.0068-5e-3 0.1471 2e-3 0.31183 0.0165 0.7077 0.0615 1.6238-0.10467 2.5058-0.45473 0.18378-0.0729 0.34431-0.14277 0.35672-0.15519 0.01264-0.0127-0.05848-0.26827-0.16175-0.58133-0.33558-1.0173-0.42367-1.4474-0.44198-2.1574-0.01515-0.58781 0.02243-0.89058 0.16249-1.3092 0.16793-0.50184 0.38805-0.85935 0.75732-1.23 0.48376-0.48556 1.0582-0.76712 1.7282-0.84712 0.56082-0.067 1.1438 0.0732 1.5703 0.37754 0.99711 0.71153 1.1839 2.1869 0.44019 3.4763-0.62832 1.0893-1.9454 2.087-3.4962 2.6482-0.06943 0.0251-0.13218 0.0612-0.13945 0.0801-0.0073 0.0189 0.03995 0.19722 0.10494 0.39616 0.36753 1.1252 0.49435 1.7657 0.49386 2.4945-0.0014 2.0434-1.2998 3.8416-3.2201 4.4595-0.53463 0.17205-1.2835 0.25354-1.8103 0.19701zm4.5511-8.2706c0.76712-0.40869 1.6094-1.0885 2.0733-1.6733 0.33548-0.42297 0.59932-0.93287 0.68991-1.3333 0.05672-0.25073 0.05697-0.68996 4.88e-4 -0.90281-0.1585-0.59764-0.60033-0.91544-1.2699-0.91343-0.69823 2e-3 -1.3316 0.35484-1.7513 0.97526-0.19985 0.29547-0.32695 0.62941-0.41231 1.0834-0.06277 0.3338-0.06276 1.1058 1.7e-5 1.4862 0.1049 0.63572 0.31357 1.4116 0.37963 1.4116 0.02167 0 0.15225-0.0601 0.29018-0.13361z" fill="#008080" stroke-width=".026168"/>
  <text x="76.882011" y="150.02116" fill="#000000" font-family="sans-serif" font-size="8.6214px" letter-spacing="0px" stroke-width=".30791" word-spacing="0px" style="line-height:1.25" xml:space="preserve"><tspan x="76.882011" y="150.02116" font-size="8.6214px" stroke-width=".30791"><tspan font-family="Causten-Bold">Laravel</tspan> <tspan font-family="'Carmen Sans'" font-size="6.9793px">Breeze</tspan></tspan></text>
 </g>
</svg>
