<svg xmlns="http://www.w3.org/2000/svg" width="270" height="48" fill="none">
 <path d="m178.81 13.502v20.789h8.9688c3.1482 0 5.6738-2.5237 5.6738-5.6719 0-2.376-1.4854-4.3075-3.5644-5.1094 1.6038-0.8613 2.6719-2.5234 2.6719-4.543 0-2.9997-2.4335-5.4648-5.4629-5.4648zm1.5742 1.4844h6.7129c2.1384 0 3.8906 1.7827 3.8906 3.9805s-1.7522 3.9785-3.8906 3.9785h-6.7129zm31.9 4.1289c-4.5441 0-7.6914 3.3841-7.6914 7.75 0 4.4847 3.2367 7.752 7.8105 7.752 2.9403 0 5.2569-1.3359 6.4746-3.3555l-1.3066-0.77148c-0.8613 1.5741-2.7033 2.7012-5.1387 2.7012-3.3858 0-5.9405-2.1966-6.2969-5.5527h13.455c0-0.2376 0.0293-0.47529 0.0293-0.71289 0-4.0689-2.8215-7.8105-7.3359-7.8105zm17.52 0c-4.5441 0-7.6934 3.3841-7.6934 7.75 0 4.4847 3.2367 7.752 7.8105 7.752 2.9403 0 5.2569-1.3359 6.4746-3.3555l-1.3066-0.77148c-0.8613 1.5741-2.7013 2.7012-5.1367 2.7012-3.3858 0-5.9405-2.1966-6.2969-5.5527h13.453c0-0.2376 0.0312-0.47529 0.0312-0.71289 0-4.0689-2.8215-7.8105-7.3359-7.8105zm29.988 0c-4.5441 0-7.6914 3.3841-7.6914 7.75 0 4.4847 3.2368 7.752 7.8106 7.752 2.9403 0 5.2569-1.3359 6.4746-3.3555l-1.3066-0.77148c-0.86129 1.5741-2.7013 2.7012-5.1367 2.7012-3.3858 0-5.9405-2.1966-6.2969-5.5527h13.453c0-0.2376 0.0293-0.47529 0.0293-0.71289 0-4.0689-2.8215-7.8105-7.3359-7.8105zm-56.33 0.11719c-2.0196 0-3.9511 0.77284-4.9609 3.1191v-2.9102h-1.4844v14.85h1.4844v-8.2559c0-3.8016 2.4067-5.377 4.9609-5.377zm35.949 0.20898v1.4551h8.6133l-8.9102 12.414v0.98047h11.285v-1.4551h-9.1777l8.8809-12.414v-0.98047zm-27.127 1.0996c2.9106 0 5.4643 2.0192 5.791 5.6426h-11.939c0.297-3.2967 2.7626-5.6426 6.1484-5.6426zm17.52 0c2.9106 0 5.4643 2.0192 5.791 5.6426h-11.939c0.297-3.2967 2.7626-5.6426 6.1484-5.6426zm29.988 0c2.9106 0 5.4663 2.0192 5.793 5.6426h-11.939c0.297-3.2967 2.7607-5.6426 6.1465-5.6426zm-79.408 3.8906h7.3945c2.2572 0 4.0996 1.8709 4.0996 4.1875s-1.8424 4.1875-4.0996 4.1875h-7.3945zm-106.29 5.6084v-17.04h-4.14v21h12.15v-3.96zm21.289-11.04v1.77c-1.08-1.35-2.7-2.19-4.89-2.19-3.99 0-7.29 3.45-7.29 7.92s3.3 7.92 7.29 7.92c2.19 0 3.81-0.84 4.89-2.19v1.77h3.87v-15zm-4.17 11.73c-2.37 0-4.14-1.71-4.14-4.23s1.77-4.23 4.14-4.23c2.4 0 4.17 1.71 4.17 4.23s-1.77 4.23-4.17 4.23zm15.419-9.15v-2.58h-3.87v15h3.87v-7.17c0-3.15 2.55-4.05 4.56-3.81v-4.32c-1.89 0-3.78 0.84-4.56 2.88zm17.667-2.58v1.77c-1.08-1.35-2.7-2.19-4.89-2.19-3.99 0-7.29 3.45-7.29 7.92s3.3 7.92 7.29 7.92c2.19 0 3.81-0.84 4.89-2.19v1.77h3.87v-15zm-4.17 11.73c-2.37 0-4.14-1.71-4.14-4.23s1.77-4.23 4.14-4.23c2.4 0 4.17 1.71 4.17 4.23s-1.77 4.23-4.17 4.23zm21.419-11.73-3.66 10.5-3.63-10.5h-4.26l5.7 15h4.41l5.7-15zm8.81 9.09h11.31c0.09-0.51 0.15-1.02 0.15-1.59 0-4.41-3.15-7.92-7.59-7.92-4.71 0-7.92 3.45-7.92 7.92s3.18 7.92 8.22 7.92c2.88 0 5.13-1.17 6.54-3.21l-3.12-1.8c-0.66 0.87-1.86 1.5-3.36 1.5-2.04 0-3.69-0.84-4.23-2.82zm-0.06-3c0.45-1.92 1.86-3.03 3.93-3.03 1.62 0 3.24 0.87 3.72 3.03zm14.222 8.91h3.87v-21.9h-3.87z" style="font-variant-caps:normal;font-variant-east-asian:normal;font-variant-ligatures:normal;font-variant-numeric:normal" fill="#000"/>
 <path d="m28.914 42.461c-4.5585-0.28858-8.73-1.6544-11.51-3.7686-0.31159-0.23689-0.98538-0.83464-1.4973-1.3281-1.4333-1.3818-2.3683-2.0525-3.9103-2.8048-1.5134-0.73831-3.2916-1.2471-5.1486-1.4731-0.9745-0.11871-3.3024-0.10171-4.3791 0.031638-1.7355 0.21493-1.6546 0.21022-1.5395 0.088639 0.056451-0.059616 0.46325-0.19976 0.90395-0.31102 5.2723-1.3315 10.633-0.25284 14.457 2.9091 0.33871 0.28004 0.81594 0.67977 1.0605 0.88829 3.0914 2.6354 8.5937 3.8737 13.919 3.1324 2.4798-0.34519 4.6479-0.99976 6.7791-2.0467 3.3709-1.6559 5.5092-3.8839 6.0894-6.3446 0.13055-0.55374 0.12909-1.6075-0.0029-2.1728-0.32702-1.3994-1.4161-2.6733-2.9389-3.4378-2.2651-1.137-4.9441-1.1879-9.8242-0.18643-2.1594 0.44314-2.7784 0.5415-3.8603 0.61351-2.1837 0.14538-4.8463-0.28234-8.3079-1.3344-1.9211-0.58389-2.1529-0.73839-0.62136-0.41414 2.0925 0.44304 3.8138 0.65229 5.3711 0.65294 2.3493 1e-3 3.1084-0.19218 6.6881-1.7021 3.7555-1.5841 6.9878-2.0506 9.9889-1.4419 3.3714 0.68382 5.9375 2.786 6.9867 5.7236 0.57801 1.6185 0.55141 3.7887-0.06756 5.5113-1.3257 3.6893-5.0777 6.815-9.9458 8.2855-2.6239 0.79254-5.6844 1.12-8.6897 0.92979z" fill="#a3ca2b"/>
 <path d="m17.662 42.435c-2.0068-0.21519-3.5361-0.73821-6.5114-2.2261-2.1372-1.0688-3.1546-1.4406-4.8403-1.7687-1.4063-0.27378-2.2549-0.33492-3.9665-0.28584-0.8514 0.02353-1.6829 0.06301-1.8478 0.08576-0.21294 0.02929-0.28605 0.0183-0.25232-0.03556 0.075696-0.12237 1.7122-1.0737 2.5391-1.4757 1.6655-0.80988 3.0019-1.1476 4.5475-1.1494 1.974-0.0019 3.4273 0.46706 6.183 1.9965 2.0588 1.1427 3.192 1.6219 4.4907 1.8994 0.72485 0.15479 3.1416 0.17623 3.7976 0.03399 4.1265-0.89684 7.1248-3.8854 8.0517-8.0258 0.13976-0.62421 0.1589-0.88845 0.15785-2.1813-0.0013-1.5779-0.05841-2.0415-0.44685-3.625-0.22813-0.93002-0.80802-2.7564-0.89198-2.8095-0.03224-0.02092-0.51368 0.07687-1.0699 0.21597-0.5562 0.1391-1.3499 0.30589-1.7639 0.37061-0.98582 0.15427-3.1209 0.20996-3.9872 0.10406-1.022-0.12472-2.1258-0.40115-1.9979-0.50017 0.01778-0.01307 0.38462 0.0052 0.81534 0.04314 1.8504 0.1608 4.2458-0.27368 6.5519-1.189 0.48053-0.19061 0.90027-0.3733 0.93272-0.40578 0.03305-0.03321-0.15291-0.70145-0.42293-1.52-0.87744-2.6599-1.1078-3.7845-1.1556-5.641-0.03961-1.5369 0.05865-2.3286 0.42486-3.4232 0.43909-1.3122 1.0146-2.2469 1.9802-3.2161 1.2649-1.2696 2.7669-2.0058 4.5187-2.215 1.4664-0.17518 2.9907 0.1914 4.1059 0.98715 2.6071 1.8604 3.0955 5.7181 1.151 9.0895-1.6429 2.8482-5.0866 5.4569-9.1415 6.9242-0.18154 0.06563-0.34561 0.16002-0.36462 0.20944-0.01909 0.04942 0.10446 0.51567 0.27439 1.0358 0.96098 2.9421 1.2926 4.6168 1.2913 6.5224-0.0037 5.3429-3.3986 10.045-8.4196 11.66-1.3979 0.44986-3.356 0.66293-4.7334 0.51512zm11.9-21.625c2.0058-1.0686 4.2081-2.8461 5.4211-4.3752 0.87718-1.1059 1.567-2.4392 1.8039-3.4862 0.14831-0.65558 0.14896-1.804 0.0013-2.3606-0.41443-1.5626-1.5697-2.3936-3.3204-2.3883-1.8257 0.00523-3.4817 0.9278-4.5791 2.55-0.52255 0.77256-0.85488 1.6457-1.0781 2.8328-0.16412 0.87279-0.1641 2.8913 4.5e-5 3.886 0.27428 1.6622 0.81989 3.6909 0.99262 3.6909 0.05666 0 0.39809-0.15714 0.75873-0.34935z" fill="#008080"/>
</svg>
