<svg width="270" height="48" fill="none" xmlns="http://www.w3.org/2000/svg">
 <path d="m74.09 30.04v-17.04h-4.14v21h12.15v-3.96zm21.289-11.04v1.77c-1.08-1.35-2.7-2.19-4.89-2.19-3.99 0-7.29 3.45-7.29 7.92s3.3 7.92 7.29 7.92c2.19 0 3.81-0.84 4.89-2.19v1.77h3.87v-15zm-4.17 11.73c-2.37 0-4.14-1.71-4.14-4.23s1.77-4.23 4.14-4.23c2.4 0 4.17 1.71 4.17 4.23s-1.77 4.23-4.17 4.23zm15.419-9.15v-2.58h-3.87v15h3.87v-7.17c0-3.15 2.55-4.05 4.56-3.81v-4.32c-1.89 0-3.78 0.84-4.56 2.88zm17.667-2.58v1.77c-1.08-1.35-2.7-2.19-4.89-2.19-3.99 0-7.29 3.45-7.29 7.92s3.3 7.92 7.29 7.92c2.19 0 3.81-0.84 4.89-2.19v1.77h3.87v-15zm-4.17 11.73c-2.37 0-4.14-1.71-4.14-4.23s1.77-4.23 4.14-4.23c2.4 0 4.17 1.71 4.17 4.23s-1.77 4.23-4.17 4.23zm21.419-11.73-3.66 10.5-3.63-10.5h-4.26l5.7 15h4.41l5.7-15zm8.81 9.09h11.31c0.09-0.51 0.15-1.02 0.15-1.59 0-4.41-3.15-7.92-7.59-7.92-4.71 0-7.92 3.45-7.92 7.92s3.18 7.92 8.22 7.92c2.88 0 5.13-1.17 6.54-3.21l-3.12-1.8c-0.66 0.87-1.86 1.5-3.36 1.5-2.04 0-3.69-0.84-4.23-2.82zm-0.06-3c0.45-1.92 1.86-3.03 3.93-3.03 1.62 0 3.24 0.87 3.72 3.03zm14.222 8.91h3.87v-21.9h-3.87z" fill="#000"/>
 <path d="m178.95 13.002v0.15039 20.939h9.1191c3.2284 0 5.8242-2.5938 5.8242-5.8223 0-2.3601-1.4672-4.2533-3.4922-5.1211 1.546-0.9127 2.5996-2.5379 2.5996-4.5312 0-3.0808-2.5025-5.6152-5.6133-5.6152h-8.4375zm1.875 1.7852h6.5625c2.055 0 3.7402 1.712 3.7402 3.8301 0 2.1181-1.6851 3.8281-3.7402 3.8281h-6.5625v-7.6582zm31.75 3.8281c-4.6186 0-7.8418 3.4624-7.8418 7.9004 0 4.5569 3.3157 7.9023 7.9609 7.9023 2.9857 0 5.3555-1.3611 6.6016-3.4277l0.07813-0.13086-1.5703-0.92578-0.07421 0.13476c-0.83255 1.5215-2.6167 2.623-5.0059 2.623-3.2593 0-5.6818-2.0674-6.1016-5.252h13.408v-0.15039c0-0.22527 0.02929-0.46296 0.02929-0.71289 0-4.051-2.7932-7.7481-7.2226-7.9043l0.04297-0.056641h-0.30469zm17.52 0c-4.6186 0-7.8438 3.4624-7.8438 7.9004 0 4.5569 3.3157 7.9023 7.9609 7.9023 2.9857 0 5.3575-1.3611 6.6035-3.4277l0.07813-0.13086-1.5703-0.92578-0.07618 0.13476c-0.83259 1.5216-2.6148 2.623-5.0039 2.623-3.2593 0-5.6818-2.0674-6.1016-5.252h13.408v-0.15039c0-0.22447 0.03125-0.46216 0.03125-0.71289 0-4.0115-2.7516-7.6551-7.1055-7.8789l0.125-0.082032h-0.50586zm29.988 0c-4.6186 0-7.8418 3.4624-7.8418 7.9004 0 4.5569 3.3157 7.9023 7.9609 7.9023 2.9857 0 5.3555-1.3611 6.6016-3.4277l0.07813-0.13086-1.5703-0.92578-0.07422 0.13476c-0.83258 1.5216-2.6148 2.623-5.0039 2.623-3.2593 0-5.6818-2.0674-6.1016-5.252h13.406v-0.15039c0-0.22527 0.0293-0.46296 0.0293-0.71289 0-4.0889-2.8339-7.8401-7.3359-7.9297v-0.03125h-0.14844zm-56.33 0.11719c-1.9004 0-3.7241 0.7527-4.8105 2.748v-2.5391h-1.7852v15.15h1.7852v-8.4062c0-1.8691 0.58609-3.1655 1.4746-4.0039 0.88851-0.83844 2.0897-1.2227 3.3359-1.2227h0.15039v-1.7266h-0.15039zm35.799 0.20898v0.15039 1.6055h8.4688l-8.7656 12.215v1.1797h11.584v-1.7559h-9.0352l8.7383-12.215v-1.1797h-10.99zm-26.977 1.4004c2.7919 0 5.2092 1.9 5.5977 5.3418h-11.555c0.36116-3.1347 2.7016-5.3418 5.957-5.3418zm17.52 0c2.7919 0 5.2092 1.9 5.5977 5.3418h-11.553c0.36116-3.1347 2.6997-5.3418 5.9551-5.3418zm29.988 0c2.7919 0 5.2111 1.9 5.5996 5.3418h-11.555c0.3611-3.1348 2.6997-5.3418 5.9551-5.3418zm-79.258 3.8906h7.2441c2.1743 0 3.9492 1.8 3.9492 4.0371 0 2.2371-1.7749 4.0371-3.9492 4.0371h-7.2441v-8.0742z" fill="#000"/>
 <path d="m24.029 0.01198c-13.264-1.3965e-4 -24.016 10.741-24.016 23.991 7.789e-5 13.25 10.752 23.991 24.016 23.991 13.264-7.8e-5 24.016-10.741 24.016-23.991-7.6e-5 -13.25-10.752-23.991-24.016-23.991zm23.971 25.385c-7.4339-2.716-14.875 0.050438-22.927 1.7675-8.4406 1.4568-17.058 0.7446-25.051-3.7099 7.6318 2.104 15.811-0.40366 24.008-2.1988 8.1818-1.3677 17.68 0.82474 23.971 4.1412z" fill="#2392be"/>
</svg>
